<svg width="512" height="512" viewBox="0 0 512 512" fill="none" xmlns="http://www.w3.org/2000/svg">
  <!-- Background Circle -->
  <circle cx="256" cy="256" r="240" fill="#F0F4F8" stroke="#CBD5E0" stroke-width="4"/>
  
  <!-- Shopping Basket -->
  <path d="M180 280 L180 380 L332 380 L332 280" stroke="#A67C52" stroke-width="12" fill="none"/>
  <path d="M160 280 L352 280" stroke="#A67C52" stroke-width="12"/>
  <path d="M190 280 L210 350" stroke="#A67C52" stroke-width="8"/>
  <path d="M256 280 L256 350" stroke="#A67C52" stroke-width="8"/>
  <path d="M322 280 L302 350" stroke="#A67C52" stroke-width="8"/>
  
  <!-- Left Brain (Blue) -->
  <circle cx="210" cy="180" r="45" fill="#1E88E5"/>
  <path d="M185 170 Q190 175 195 170" stroke="white" stroke-width="3" fill="none"/>
  <path d="M200 185 Q205 190 210 185" stroke="white" stroke-width="3" fill="none"/>
  <path d="M215 175 Q220 180 225 175" stroke="white" stroke-width="3" fill="none"/>
  <circle cx="195" cy="165" r="3" fill="white"/>
  <circle cx="210" cy="180" r="3" fill="white"/>
  <circle cx="225" cy="170" r="3" fill="white"/>
  
  <!-- Right Brain (Green) -->
  <circle cx="302" cy="180" r="45" fill="#66BB6A"/>
  <path d="M277 170 Q282 175 287 170" stroke="white" stroke-width="3" fill="none"/>
  <path d="M292 185 Q297 190 302 185" stroke="white" stroke-width="3" fill="none"/>
  <path d="M307 175 Q312 180 317 175" stroke="white" stroke-width="3" fill="none"/>
  <circle cx="287" cy="165" r="3" fill="white"/>
  <circle cx="302" cy="180" r="3" fill="white"/>
  <circle cx="317" cy="170" r="3" fill="white"/>
  
  <!-- Text -->
  <text x="256" y="440" font-family="Arial, sans-serif" font-size="48" font-weight="bold" fill="#1E88E5" text-anchor="middle">NeuMart</text>
  <text x="256" y="480" font-family="Arial, sans-serif" font-size="32" font-weight="bold" fill="#66BB6A" text-anchor="middle">Sembako</text>
</svg>
